<?xml version="1.0" encoding="UTF-8"?>
<!DOCTYPE svg PUBLIC "-//W3C//DTD SVG 1.1//EN" "http://www.w3.org/Graphics/SVG/1.1/DTD/svg11.dtd">
<!-- Creator: CorelDRAW 2019 (64-Bit) -->
<svg xmlns="http://www.w3.org/2000/svg" xml:space="preserve" width="292px" height="292px" version="1.1" style="shape-rendering:geometricPrecision; text-rendering:geometricPrecision; image-rendering:optimizeQuality; fill-rule:evenodd; clip-rule:evenodd"
viewBox="0 0 213.06 213.06"
 xmlns:xlink="http://www.w3.org/1999/xlink">
 <defs>
  <style type="text/css">
   <![CDATA[
    .fil0 {fill:#076ABD;fill-rule:nonzero}
   ]]>
  </style>
 </defs>
 <g id="Capa_x0020_1">
  <metadata id="CorelCorpID_0Corel-Layer"/>
  <path class="fil0" d="M106.53 155.99c-27.32,0 -49.46,-22.14 -49.46,-49.46 0,-27.32 22.14,-49.46 49.46,-49.46 27.32,0 49.46,22.14 49.46,49.46 0,27.32 -22.14,49.46 -49.46,49.46zm79.35 -68.56c-2.09,-8.69 -5.56,-16.84 -10.18,-24.2l16.37 -21.82 -21.3 -21.05 -21.63 16.55c-7.41,-4.54 -15.6,-7.92 -24.32,-9.91l-3.85 -27 -29.95 0.17 -3.59 27.02c-8.69,2.08 -16.84,5.55 -24.2,10.17l-21.82 -16.37 -21.05 21.3 16.55 21.63c-4.54,7.41 -7.92,15.6 -9.91,24.32l-27 3.85 0.17 29.95 27.02 3.59c2.08,8.69 5.55,16.85 10.17,24.21l-16.37 21.81 21.3 21.05 21.63 -16.55c7.41,4.54 15.6,7.92 24.32,9.91l3.86 27 29.94 -0.17 3.59 -27.01c8.69,-2.09 16.85,-5.56 24.21,-10.18l21.81 16.37 21.05 -21.3 -16.55 -21.63c4.54,-7.41 7.92,-15.6 9.91,-24.32l27 -3.85 -0.17 -29.95 -27.01 -3.59z"/>
 </g>
</svg>
