<?xml version="1.0" encoding="UTF-8"?>
<!DOCTYPE svg PUBLIC "-//W3C//DTD SVG 1.1//EN" "http://www.w3.org/Graphics/SVG/1.1/DTD/svg11.dtd">
<!-- Creator: CorelDRAW 2019 (64-Bit) -->
<svg xmlns="http://www.w3.org/2000/svg" xml:space="preserve" width="1301px" height="622px" version="1.1" style="shape-rendering:geometricPrecision; text-rendering:geometricPrecision; image-rendering:optimizeQuality; fill-rule:evenodd; clip-rule:evenodd"
viewBox="0 0 1301 622.25"
 xmlns:xlink="http://www.w3.org/1999/xlink">
 <defs>
  <style type="text/css">
   <![CDATA[
    .fil0 {fill:white;fill-rule:nonzero}
   ]]>
  </style>
 </defs>
 <g id="Capa_x0020_1">
  <metadata id="CorelCorpID_0Corel-Layer"/>
  <g id="_2707767698000">
   <path class="fil0" d="M424.55 260.92c22.29,-39.68 54.73,-72.9 93.78,-96.12 38.7,-23.01 83.9,-36.23 132.17,-36.23 48.27,0 93.47,13.22 132.17,36.23 39.05,23.22 71.49,56.44 93.78,96.12l81.48 0 41.34 -42.62c-4.08,-8.38 -8.45,-16.6 -13.09,-24.62 -4.63,-8.01 -9.58,-15.88 -14.81,-23.58l-69.76 17.6 -2.33 -2.85c-6.8,-8.34 -14.11,-16.41 -21.87,-24.17 -7.77,-7.77 -15.85,-15.08 -24.19,-21.88l-2.85 -2.33 17.61 -69.77c-7.65,-5.2 -15.53,-10.14 -23.61,-14.81 -8.02,-4.64 -16.22,-9.01 -24.59,-13.08l-51.65 50.09 -3.41 -1.3c-10.13,-3.86 -20.49,-7.22 -31.04,-10.04 -10.51,-2.81 -21.17,-5.1 -31.94,-6.82l-3.64 -0.59 -19.7 -69.16c-4.08,-0.3 -8.05,-0.53 -11.9,-0.68 -4.99,-0.21 -10.33,-0.31 -16,-0.31 -5.68,0 -11.01,0.1 -16.01,0.31 -3.85,0.15 -7.82,0.38 -11.9,0.68l-19.69 69.16 -3.64 0.59c-10.77,1.72 -21.43,4.01 -31.95,6.82 -10.54,2.82 -20.9,6.18 -31.03,10.04l-3.41 1.3 -51.65 -50.09c-8.37,4.07 -16.57,8.43 -24.59,13.07 -8.08,4.68 -15.96,9.62 -23.61,14.82l17.6 69.77 -2.85 2.33c-8.34,6.8 -16.41,14.11 -24.18,21.87 -7.76,7.77 -15.07,15.84 -21.87,24.18l-2.33 2.85 -69.77 -17.6c-5.2,7.65 -10.14,15.53 -14.82,23.61 -4.63,8.01 -9,16.22 -13.07,24.59l41.34 42.62 81.48 0z"/>
   <path class="fil0" d="M1.97 486.02l66.25 -164.02c1.97,-4.44 5.01,-6.65 9.11,-6.65l38.92 0c3.44,0 5.66,1.48 6.65,4.43l27.58 81.77c0,0.65 0.16,0.98 0.49,0.98 0.5,0 0.82,-0.49 0.99,-1.47l32.02 -79.06c1.96,-4.44 5,-6.65 9.11,-6.65l38.66 0c4.6,0 5.92,2.21 3.94,6.65l-66.25 164.02c-1.97,4.44 -5.09,6.65 -9.35,6.65l-38.67 0c-3.45,0 -5.67,-1.47 -6.65,-4.43l-27.34 -82.01c-0.16,-0.66 -0.41,-0.99 -0.74,-0.99 -0.16,0 -0.49,0.5 -0.98,1.48l-32.02 79.3c-1.97,4.44 -5.01,6.65 -9.11,6.65l-38.92 0c-4.43,0 -5.66,-2.21 -3.69,-6.65z"/>
   <path id="1" class="fil0" d="M183.91 485.53l135.95 -164.76c2.96,-3.62 6.32,-5.42 10.1,-5.42l38.91 0c3.78,0 5.67,1.8 5.67,5.42l2.95 164.76c0,4.76 -2.54,7.14 -7.63,7.14l-38.92 0c-3.94,0 -5.82,-1.8 -5.66,-5.41l0 -22.17c0,-1.48 -0.82,-2.22 -2.46,-2.22l-41.38 0c-5.25,0 -5.91,-2.38 -1.97,-7.14l21.67 -27.34c1.81,-2.3 3.33,-3.73 4.56,-4.31 1.23,-0.57 3.16,-0.86 5.79,-0.86l11.57 0c1.65,0 2.47,-0.74 2.47,-2.21l-0.25 -37.69 -82.75 103.94c-1.81,2.29 -3.33,3.77 -4.56,4.43 -1.23,0.66 -3.08,0.98 -5.54,0.98l-46.79 0c-5.09,0 -5.67,-2.38 -1.73,-7.14z"/>
   <path id="2" class="fil0" d="M391.47 486.02l66.25 -164.02c1.97,-4.44 5.01,-6.65 9.11,-6.65l115.76 0c11.65,0 19.9,4.06 24.75,12.19 4.84,8.13 4.88,17.94 0.12,29.43l-21.92 52.21c-4.27,10.02 -9.81,17 -16.62,20.94 -6.82,3.94 -16.87,5.91 -30.17,5.91l18.96 49.75c1.97,4.59 -0.08,6.89 -6.16,6.89l-40.88 0c-4.1,0 -6.65,-1.39 -7.63,-4.18l-19.46 -52.46 -2.46 0c-4.27,0 -5.59,-2.14 -3.94,-6.41l12.8 -31.52c1.97,-4.43 5.01,-6.65 9.12,-6.65l40.14 0c1.64,0 2.79,-0.82 3.45,-2.46l9.85 -24.63c0.49,-1.64 0,-2.46 -1.48,-2.46l-55.17 0c-1.8,0 -2.95,0.82 -3.44,2.46l-49.26 121.66c-1.97,4.44 -5.01,6.65 -9.11,6.65l-38.92 0c-4.43,0 -5.66,-2.21 -3.69,-6.65z"/>
   <path id="3" class="fil0" d="M588.68 486.02l66.25 -164.02c1.97,-4.44 5.01,-6.65 9.11,-6.65l109.6 0c11.66,0 19.91,4.02 24.75,12.07 4.85,8.04 4.89,17.89 0.13,29.55l-38.18 94.08c-6.24,15.44 -13.67,26.23 -22.29,32.39 -8.62,6.16 -20.64,9.23 -36.08,9.23l-46.79 0c-4.44,0 -5.67,-2.21 -3.7,-6.65l13.55 -33.49c1.64,-4.27 4.6,-6.4 8.87,-6.4l34.48 0c1.8,0 2.95,-0.83 3.44,-2.47l32.27 -79.3c0.49,-1.64 0,-2.46 -1.48,-2.46l-50 0c-1.8,0 -2.95,0.82 -3.44,2.46l-49.26 121.66c-1.97,4.44 -5.01,6.65 -9.11,6.65l-38.42 0c-4.44,0 -5.67,-2.21 -3.7,-6.65z"/>
   <path id="4" class="fil0" d="M792.05 451.05l38.17 -94.08c6.24,-15.43 13.67,-26.23 22.29,-32.39 8.62,-6.15 20.65,-9.23 36.08,-9.23l83.49 0c11.83,0 20.16,4.02 25,12.07 4.85,8.04 4.89,17.89 0.13,29.55l-38.18 94.08c-6.24,15.44 -13.71,26.23 -22.41,32.39 -8.7,6.16 -20.77,9.23 -36.2,9.23l-29.31 0c-4.44,0 -5.67,-2.21 -3.7,-6.65l13.55 -33.49c1.64,-4.27 4.6,-6.4 8.87,-6.4l16.99 0c1.8,0 2.95,-0.83 3.45,-2.47l32.01 -79.3c0.5,-1.64 0,-2.46 -1.47,-2.46l-58.37 0c-1.81,0 -2.96,0.82 -3.45,2.46l-32.02 79.3c-0.49,1.64 0,2.47 1.48,2.47l16.99 0c4.27,0 5.59,2.13 3.94,6.4l-13.54 33.49c-1.97,4.44 -5.01,6.65 -9.11,6.65l-29.81 0c-11.65,0 -19.9,-4.02 -24.75,-12.06 -4.84,-8.05 -4.88,-17.9 -0.12,-29.56z"/>
   <path id="5" class="fil0" d="M978.43 486.02l66.25 -164.02c1.97,-4.44 5,-6.65 9.11,-6.65l38.91 0c3.45,0 5.67,1.48 6.65,4.43l27.59 81.77c0,0.65 0.16,0.98 0.49,0.98 0.49,0 0.82,-0.49 0.98,-1.47l32.02 -79.06c1.97,-4.44 5.01,-6.65 9.11,-6.65l38.67 0c4.6,0 5.91,2.21 3.94,6.65l-66.25 164.02c-1.97,4.44 -5.09,6.65 -9.36,6.65l-38.67 0c-3.44,0 -5.66,-1.47 -6.65,-4.43l-27.33 -82.01c-0.17,-0.66 -0.41,-0.99 -0.74,-0.99 -0.17,0 -0.5,0.5 -0.99,1.48l-32.01 79.3c-1.98,4.44 -5.01,6.65 -9.12,6.65l-38.91 0c-4.43,0 -5.66,-2.21 -3.69,-6.65z"/>
   <path id="6" class="fil0" d="M1247.31 322c1.97,-4.44 5,-6.65 9.11,-6.65l38.91 0c4.43,0 5.67,2.21 3.7,6.65l-66.25 164.02c-1.97,4.44 -5.01,6.65 -9.12,6.65l-38.91 0c-4.43,0 -5.66,-2.21 -3.69,-6.65l66.25 -164.02z"/>
   <path class="fil0" d="M301.39 620.95l17.99 0 0 -19.66 7.7 0 0.19 0 13.07 19.66 20.78 0 -15.49 -22.63c8.07,-3.43 13.36,-10.02 13.36,-19.94l0 -0.19c0,-6.4 -1.95,-11.4 -5.76,-15.11 -4.35,-4.45 -11.22,-7.05 -21.14,-7.05l-30.7 0 0 64.92zm17.99 -33.76l0 -15.58 11.78 0c6.03,0 9.74,2.6 9.74,7.7l0 0.18c0,4.73 -3.52,7.7 -9.64,7.7l-11.88 0z"/>
   <polygon id="1" class="fil0" points="384.29,620.95 436.96,620.95 436.96,605.65 402.09,605.65 402.09,595.35 433.25,595.35 433.25,581.16 402.09,581.16 402.09,571.33 436.5,571.33 436.5,556.03 384.29,556.03 "/>
   <path id="2" class="fil0" d="M462.36 620.95l17.99 0 0 -18.55 8.9 0c16.14,0 27.92,-8.07 27.92,-23.37l0 -0.19c0,-14.37 -10.58,-22.81 -26.99,-22.81l-27.82 0 0 64.92zm17.99 -32.65l0 -17.15 8.44 0c6.49,0 10.39,2.96 10.39,8.53l0 0.18c0,5.1 -3.9,8.44 -10.3,8.44l-8.53 0z"/>
   <path id="3" class="fil0" d="M570.2 622.15c18.45,0 30.42,-9.18 30.42,-30.14l0 -35.98 -18.27 0 0 36.54c0,9.09 -4.73,13.35 -11.97,13.35 -7.23,0 -11.96,-4.45 -11.96,-13.81l0 -36.08 -18.27 0 0 36.45c0,20.31 11.59,29.67 30.05,29.67z"/>
   <polygon id="4" class="fil0" points="627.5,620.95 680.17,620.95 680.17,605.65 645.3,605.65 645.3,595.35 676.46,595.35 676.46,581.16 645.3,581.16 645.3,571.33 679.71,571.33 679.71,556.03 627.5,556.03 "/>
   <path id="5" class="fil0" d="M731.07 622.06c15.77,0 26.25,-7.88 26.25,-21.14l0 -0.19c0,-12.15 -9.28,-16.97 -24.21,-20.22 -8.99,-2.04 -11.22,-3.34 -11.22,-6.3l0 -0.19c0,-2.32 2.13,-4.17 6.49,-4.17 5.75,0 12.24,2.22 18.18,6.4l8.99 -12.71c-7.04,-5.66 -15.67,-8.62 -26.7,-8.62 -15.59,0 -25.14,8.71 -25.14,20.77l0 0.19c0,13.35 10.67,17.25 24.49,20.4 8.81,2.04 10.94,3.52 10.94,6.21l0 0.19c0,2.78 -2.6,4.45 -7.42,4.45 -7.51,0 -14.65,-2.69 -21.05,-7.79l-10.02 11.96c7.98,7.14 18.92,10.76 30.42,10.76z"/>
   <polygon id="6" class="fil0" points="796.25,620.95 814.24,620.95 814.24,571.79 833.72,571.79 833.72,556.03 776.77,556.03 776.77,571.79 796.25,571.79 "/>
   <path id="7" class="fil0" d="M887.68 622.25c20.03,0 35.05,-15.12 35.05,-33.76l0 -0.19c0,-18.64 -14.84,-33.57 -34.87,-33.57 -20.03,0 -35.05,15.12 -35.05,33.76l0 0.18c0,18.64 14.83,33.58 34.87,33.58zm0.18 -16.23c-9.83,0 -16.6,-8.16 -16.6,-17.53l0 -0.19c0,-9.36 6.59,-17.34 16.42,-17.34 9.92,0 16.69,8.16 16.69,17.53l0 0.18c0,9.37 -6.58,17.35 -16.51,17.35z"/>
   <path id="8" class="fil0" d="M973.35 622.06c15.77,0 26.25,-7.88 26.25,-21.14l0 -0.19c0,-12.15 -9.28,-16.97 -24.21,-20.22 -8.99,-2.04 -11.22,-3.34 -11.22,-6.3l0 -0.19c0,-2.32 2.13,-4.17 6.49,-4.17 5.75,0 12.24,2.22 18.18,6.4l9 -12.71c-7.05,-5.66 -15.68,-8.62 -26.71,-8.62 -15.58,0 -25.14,8.71 -25.14,20.77l0 0.19c0,13.35 10.67,17.25 24.49,20.4 8.81,2.04 10.94,3.52 10.94,6.21l0 0.19c0,2.78 -2.6,4.45 -7.42,4.45 -7.51,0 -14.65,-2.69 -21.05,-7.79l-10.02 11.96c7.98,7.14 18.92,10.76 30.42,10.76z"/>
  </g>
 </g>
</svg>
